<svg width="25" height="36" viewBox="0 0 25 36" fill="none" xmlns="http://www.w3.org/2000/svg">
<path id="download-arrow" opacity="0.6" d="M21.9359 21.2762C22.6487 20.5634 23.7708 20.5634 24.4835 21.2762C25.1722 21.9889 25.1722 23.111 24.4835 23.8237L13.8085 34.5004C13.4778 34.831 13.0187 35.0349 12.5098 35.0349C12.001 35.0349 11.5419 34.831 11.2096 34.5004L0.534553 23.8237C-0.178184 23.111 -0.178184 21.9889 0.534553 21.2762C1.24729 20.5634 2.36937 20.5634 3.08211 21.2762L10.7007 28.9205V1.78345C10.6991 0.78979 11.5146 0 12.5082 0C13.5019 0 14.2917 0.78979 14.2917 1.78345V28.9188L21.9359 21.2762Z" fill="#1E201D"/>
</svg>
